<?xml version="1.0" standalone="no"?>
<!DOCTYPE svg PUBLIC "-//W3C//DTD SVG 20010904//EN"
 "http://www.w3.org/TR/2001/REC-SVG-20010904/DTD/svg10.dtd">
<svg version="1.0" xmlns="http://www.w3.org/2000/svg"
 width="443.000000pt" height="428.000000pt" viewBox="0 0 443.000000 428.000000"
 preserveAspectRatio="xMidYMid meet">

<g transform="translate(0.000000,428.000000) scale(0.100000,-0.100000)"
fill="#000000" stroke="none">
<path d="M1922 3978 c-8 -8 -12 -68 -12 -202 l0 -191 -41 -113 c-57 -156 -71
-146 220 -150 302 -4 283 -12 339 149 l42 124 0 178 c0 104 -4 186 -10 198
-10 18 -24 19 -268 19 -187 0 -261 -3 -270 -12z m501 -68 c0 -19 -1 -92 -2
-162 l-1 -128 -235 0 -235 0 0 165 0 165 237 -2 236 -3 0 -35z m-13 -347 c0
-4 -14 -49 -31 -100 l-31 -93 -235 0 -234 0 7 23 c4 12 20 57 36 100 l30 77
229 0 c126 0 229 -3 229 -7z"/>
<path d="M1960 3531 c0 -5 -3 -17 -6 -26 -6 -13 -1 -16 21 -13 18 2 31 11 36
26 7 20 5 22 -21 22 -17 0 -30 -4 -30 -9z"/>
<path d="M2050 3531 c0 -5 -3 -17 -6 -26 -6 -13 -1 -16 21 -13 18 2 31 11 36
26 7 20 5 22 -21 22 -17 0 -30 -4 -30 -9z"/>
<path d="M2140 3531 c0 -5 -3 -17 -6 -26 -6 -13 -1 -16 21 -13 18 2 31 11 36
26 7 20 5 22 -21 22 -17 0 -30 -4 -30 -9z"/>
<path d="M2230 3531 c0 -5 -3 -17 -6 -26 -6 -13 -1 -16 21 -13 18 2 31 11 36
26 7 20 5 22 -21 22 -17 0 -30 -4 -30 -9z"/>
<path d="M2320 3531 c0 -5 -3 -17 -6 -26 -6 -13 -1 -16 21 -13 18 2 31 11 36
26 7 20 5 22 -21 22 -17 0 -30 -4 -30 -9z"/>
<path d="M1930 3441 c-14 -28 -13 -31 13 -31 16 0 28 9 35 25 11 23 10 25 -13
25 -14 0 -29 -8 -35 -19z"/>
<path d="M2020 3451 c0 -5 -3 -17 -6 -26 -6 -13 -1 -16 21 -13 18 2 31 11 36
26 7 20 5 22 -21 22 -17 0 -30 -4 -30 -9z"/>
<path d="M2110 3451 c0 -5 -3 -17 -6 -26 -6 -13 -1 -16 21 -13 18 2 31 11 36
26 7 20 5 22 -21 22 -17 0 -30 -4 -30 -9z"/>
<path d="M2197 3434 c-4 -22 -1 -25 21 -22 15 2 28 12 33 26 7 20 5 22 -20 22
-23 0 -30 -5 -34 -26z"/>
<path d="M2287 3434 c-4 -22 -1 -25 21 -22 15 2 28 12 33 26 7 20 5 22 -20 22
-23 0 -30 -5 -34 -26z"/>
<path d="M2890 3405 l0 -295 178 2 177 3 3 293 2 292 -180 0 -180 0 0 -295z
m320 5 l0 -260 -145 0 -145 0 0 260 0 260 145 0 145 0 0 -260z"/>
<path d="M2965 3590 c-14 -23 11 -30 106 -30 90 0 100 2 97 18 -3 14 -17 17
-100 20 -59 2 -99 -1 -103 -8z"/>
<path d="M2964 3499 c-13 -22 16 -30 107 -27 80 3 94 6 97 21 3 15 -7 17 -97
17 -61 0 -102 -4 -107 -11z"/>
<path d="M3034 3306 c-9 -23 -1 -48 18 -60 14 -8 22 -6 39 10 17 18 19 25 10
43 -13 24 -59 29 -67 7z"/>
<path d="M2964 3219 c-13 -22 16 -31 106 -31 50 0 94 3 97 6 3 3 3 12 0 21 -5
12 -25 15 -101 15 -58 0 -97 -4 -102 -11z"/>
<path d="M2544 3669 c-7 -12 13 -29 35 -29 7 0 61 -16 118 -35 118 -39 123
-40 123 -21 0 14 -75 45 -190 77 -76 22 -77 22 -86 8z"/>
<path d="M1680 3635 c-109 -38 -187 -72 -195 -85 -15 -24 24 -18 113 18 53 22
125 48 160 57 37 11 62 23 62 31 0 21 -35 16 -140 -21z"/>
<path d="M915 3480 c-11 -12 -28 -73 -47 -162 -32 -161 -30 -178 26 -204 51
-25 80 -13 122 51 l37 55 98 0 98 0 41 -55 c47 -63 73 -74 124 -50 56 27 57
42 15 244 -14 64 -29 111 -41 123 -22 22 -67 23 -94 3 -27 -20 -248 -20 -284
0 -35 20 -74 18 -95 -5z m79 -25 c30 -23 273 -21 321 2 27 13 38 14 47 5 6 -6
24 -73 39 -149 l28 -138 -20 -17 c-31 -26 -55 -22 -80 15 -58 85 -63 87 -172
87 -54 0 -106 -4 -116 -10 -10 -5 -33 -32 -51 -60 -33 -51 -53 -60 -91 -40
-24 14 -24 37 5 177 29 141 44 163 90 128z"/>
<path d="M950 3370 c-24 -24 -24 -29 -4 -58 18 -27 45 -28 67 -4 23 25 21 48
-5 66 -29 20 -34 20 -58 -4z"/>
<path d="M1270 3375 c0 -8 -7 -15 -15 -15 -8 0 -15 -9 -15 -20 0 -11 6 -20 14
-20 7 0 16 -9 19 -20 3 -11 13 -20 22 -20 9 0 19 9 22 20 3 11 12 20 19 20 8
0 14 9 14 20 0 11 -7 20 -15 20 -8 0 -15 7 -15 15 0 9 -9 15 -25 15 -16 0 -25
-6 -25 -15z"/>
<path d="M3315 3240 c-3 -6 30 -54 75 -108 45 -53 109 -141 142 -194 58 -95
67 -105 81 -92 15 16 -110 211 -208 324 -61 71 -80 86 -90 70z"/>
<path d="M870 3018 c-52 -71 -122 -207 -116 -224 9 -23 23 -8 58 59 17 34 48
88 69 119 41 59 45 73 29 83 -5 3 -23 -14 -40 -37z"/>
<path d="M1738 2738 c-75 -9 -126 -37 -175 -92 -46 -52 -63 -101 -63 -181 0
-89 18 -133 80 -197 45 -46 66 -60 114 -73 110 -32 234 -8 315 61 l34 28 -58
52 -58 52 -40 -29 c-48 -35 -107 -39 -151 -10 -40 27 -55 57 -56 114 0 59 23
101 66 122 55 26 101 18 151 -27 22 -20 22 -20 50 0 15 11 41 34 57 51 l30 31
-25 26 c-55 59 -157 87 -271 72z"/>
<path d="M3569 2739 c-107 -12 -202 -84 -234 -178 -47 -138 13 -284 143 -348
50 -25 68 -28 147 -27 134 0 214 43 271 146 25 46 29 63 29 133 0 94 -20 140
-85 199 -71 64 -158 88 -271 75z m109 -153 c38 -21 62 -66 62 -119 0 -86 -46
-137 -124 -137 -97 0 -150 141 -84 225 34 44 99 58 146 31z"/>
<path d="M450 2666 c0 -63 0 -64 31 -70 17 -3 51 -6 75 -6 l43 0 6 -52 c4 -29
5 -117 3 -195 l-3 -142 50 -6 c28 -4 68 -5 90 -3 l40 3 3 198 2 197 74 0 c40
0 75 2 77 4 2 2 2 34 1 70 l-4 66 -244 0 -244 0 0 -64z"/>
<path d="M990 2466 l0 -263 38 -7 c20 -3 121 -6 225 -6 l187 0 0 70 0 70 -135
0 -135 0 0 35 0 35 115 0 115 0 0 65 0 64 -112 3 -113 3 0 30 0 30 128 3 127
3 0 64 0 65 -220 0 -220 0 0 -264z"/>
<path d="M2090 2466 l0 -263 38 -7 c20 -3 61 -6 90 -6 l52 0 0 100 0 100 84 0
83 0 7 -37 c3 -21 6 -64 6 -95 l0 -57 43 -6 c23 -4 62 -5 87 -3 l45 3 3 225
c2 124 0 244 -3 268 l-6 42 -84 0 -84 0 -3 -92 -3 -93 -85 0 -85 0 -3 93 -3
92 -89 0 -90 0 0 -264z"/>
<path d="M2720 2466 l0 -263 31 -7 c17 -3 56 -6 85 -6 l54 0 0 121 c0 142 -7
142 108 4 106 -127 103 -125 183 -125 l69 0 0 270 0 270 -90 0 -89 0 -3 -117
-3 -117 -98 117 -98 117 -74 0 -75 0 0 -264z"/>
<path d="M597 2127 c-3 -7 -1 -65 4 -128 19 -267 106 -524 251 -751 57 -89 75
-107 84 -85 3 8 -16 46 -44 88 -151 225 -243 499 -260 773 -4 66 -11 111 -18
113 -6 2 -14 -2 -17 -10z"/>
<path d="M3766 2128 c-2 -7 -7 -65 -10 -128 -16 -310 -152 -644 -365 -895 -53
-61 -57 -70 -42 -80 21 -13 163 168 240 305 126 225 196 471 203 709 2 68 0
95 -9 98 -7 3 -15 -1 -17 -9z"/>
<path d="M1180 2041 c-79 -26 -123 -67 -140 -132 -25 -92 29 -164 146 -194
116 -29 135 -36 141 -52 3 -8 0 -19 -8 -24 -25 -16 -127 -10 -181 11 -29 11
-54 20 -55 20 -3 0 -53 -113 -53 -121 0 -11 57 -36 110 -48 60 -14 175 -14
225 0 87 24 145 93 145 172 0 88 -50 130 -192 162 -42 9 -85 23 -95 30 -17 13
-17 14 0 32 23 23 101 22 164 -2 24 -9 46 -16 47 -14 9 11 46 104 46 116 0 26
-70 46 -175 49 -55 2 -111 0 -125 -5z"/>
<path d="M2357 2034 c-74 -23 -151 -103 -172 -178 -32 -111 -1 -222 82 -296
113 -99 318 -93 431 14 59 55 77 100 77 196 0 68 -5 93 -22 125 -27 51 -76 97
-133 126 -58 29 -192 36 -263 13z m156 -133 c130 -50 98 -261 -40 -261 -91 0
-146 100 -105 192 27 63 87 91 145 69z"/>
<path d="M1570 1770 l0 -270 90 0 90 0 0 100 0 100 85 0 85 0 0 -100 0 -100
90 0 90 0 0 270 0 270 -90 0 -90 0 0 -95 0 -95 -85 0 -85 0 0 95 0 95 -90 0
-90 0 0 -270z"/>
<path d="M2850 1771 l0 -271 90 0 90 0 0 64 0 63 79 6 c95 6 177 40 209 85 73
101 40 235 -72 295 -37 20 -58 22 -218 25 l-178 4 0 -271z m302 112 c19 -17
24 -58 10 -81 -12 -18 -62 -30 -100 -24 -32 4 -32 4 -32 63 l0 59 52 0 c34 0
58 -6 70 -17z"/>
<path d="M1035 1215 c-25 -24 -25 -27 -25 -190 0 -162 1 -167 24 -190 28 -28
79 -39 144 -32 36 4 53 12 75 37 l28 32 -3 160 -3 160 -28 24 c-25 21 -38 24
-108 24 -72 0 -82 -3 -104 -25z m187 -32 c16 -14 18 -33 18 -152 0 -174 -4
-181 -99 -181 -39 0 -72 5 -79 12 -17 17 -17 309 0 326 19 19 138 15 160 -5z"/>
<path d="M2996 1205 c-85 -30 -141 -119 -152 -241 -14 -161 72 -344 176 -374
72 -21 154 29 198 121 95 196 51 423 -93 490 -47 22 -76 23 -129 4z m92 -102
l3 -73 -36 0 -35 0 0 68 c0 38 3 72 7 76 4 4 19 6 33 4 24 -3 25 -6 28 -75z
m-108 -13 c0 -58 -1 -60 -25 -60 -29 0 -45 -27 -24 -41 8 -5 68 -8 134 -7 112
3 120 4 120 23 0 13 -8 21 -22 23 -21 3 -23 9 -23 64 0 71 10 69 53 -10 51
-94 45 -243 -15 -355 -37 -69 -73 -97 -124 -97 -50 0 -93 35 -126 101 -47 98
-60 207 -34 293 16 52 60 126 76 126 6 0 10 -27 10 -60z"/>
<path d="M1830 1065 c0 -3 0 -177 0 -387 l-1 -383 311 -3 310 -2 0 390 0 390
-310 0 c-170 0 -310 -2 -310 -5z m580 -385 l0 -360 -275 0 -275 0 0 355 0 355
273 3 c149 1 273 3 275 5 1 1 2 -160 2 -358z"/>
<path d="M2100 993 c-56 -20 -83 -89 -56 -142 35 -67 122 -78 170 -20 38 45
35 92 -8 135 -33 33 -66 42 -106 27z m80 -53 c11 -11 20 -31 20 -45 0 -30 -32
-65 -60 -65 -24 0 -70 42 -70 63 0 8 9 26 21 41 25 31 61 34 89 6z"/>
<path d="M2076 745 c-57 -20 -87 -45 -113 -95 -43 -80 -27 -175 38 -237 43
-40 77 -53 140 -53 95 0 168 60 190 156 23 100 -35 200 -134 229 -61 18 -71
18 -121 0z m139 -65 c48 -29 69 -76 63 -139 -8 -84 -73 -138 -156 -128 -140
16 -180 194 -60 267 43 26 111 26 153 0z"/>
<path d="M2116 587 c-26 -19 -18 -61 12 -65 44 -7 67 32 36 62 -19 19 -25 20
-48 3z"/>
<path d="M944 976 c-3 -9 -4 -54 -3 -100 4 -73 7 -88 29 -111 30 -33 78 -55
120 -55 29 0 30 -1 30 -50 l0 -50 -65 0 c-59 0 -65 -2 -65 -20 0 -20 5 -20
153 -18 127 3 152 5 152 18 0 12 -15 16 -67 18 l-68 3 0 49 c0 50 0 50 33 50
17 0 51 9 75 20 58 26 81 78 82 178 0 65 -2 72 -20 72 -18 0 -20 -7 -20 -81 0
-79 -1 -82 -34 -115 -34 -34 -35 -34 -125 -34 -146 0 -181 32 -181 164 0 62
-14 94 -26 62z"/>
<path d="M1425 730 c-8 -13 30 -36 133 -80 115 -50 190 -72 198 -59 9 16 -3
23 -91 54 -44 15 -110 43 -147 61 -72 36 -84 39 -93 24z"/>
<path d="M2675 629 c-129 -44 -175 -69 -127 -69 62 0 309 91 297 110 -9 14
-14 13 -170 -41z"/>
</g>
</svg>
